<svg width="64" height="64" viewBox="0 0 64 64" fill="none" xmlns="http://www.w3.org/2000/svg">
<circle cx="32" cy="32" r="32" fill="black" fill-opacity="0.5"/>
<path d="M30.9655 13.6699C28.2069 14.2636 26.6708 17.2794 26.5298 22.3891L26.4828 23.9204H32H37.5172L37.4702 22.3891C37.3605 18.5139 36.4828 15.92 34.8527 14.5449C33.8182 13.7011 32.3762 13.373 30.9655 13.6699Z" fill="#AAAAAA"/>
<path d="M26.4044 25.2642L26.2163 25.4361V36.0304V46.6247L26.4044 46.7966L26.5768 46.9841H32H37.4232L37.5956 46.7966L37.7837 46.6247V36.0304V25.4361L37.5956 25.2642L37.4232 25.0767H32H26.5768L26.4044 25.2642Z" fill="#AAAAAA"/>
<path d="M25.8245 48.3123C25.652 48.4842 25.6364 48.5311 25.6364 49.2811C25.6364 50.0311 25.6364 50.0936 25.8245 50.2499L25.9969 50.4374H32H38.0031L38.1756 50.2499C38.348 50.078 38.3636 50.0311 38.3636 49.2811C38.3636 48.5311 38.3636 48.4686 38.1756 48.3123L38.0031 48.1248H32H25.9969L25.8245 48.3123Z" fill="#AAAAAA"/>
</svg>
