<svg width="64" height="64" viewBox="0 0 64 64" fill="none" xmlns="http://www.w3.org/2000/svg">
<circle cx="32" cy="32" r="32" fill="black" fill-opacity="0.5"/>
<g clip-path="url(#clip0_11_43)">
<path d="M44.7231 31.1216C43.8937 30.6253 43.221 31.1216 42.9533 31.4612C40.1582 34.8702 33.3468 35.2098 30.5517 35.2098C30.4145 35.2098 30.2774 35.2098 30.2121 35.2098V32.2775C30.2121 30.9714 28.7819 30.5861 28.0309 31.2587L19.6521 38.3967C19.0121 38.9387 19.0121 39.9183 19.6456 40.4669C22.2252 42.6808 28.0309 47.6832 28.0309 47.6832C28.6252 48.2775 30.2121 48.0881 30.2121 46.6644V43.9412C30.2121 43.9412 30.2121 43.9412 30.2186 43.9346C33.0203 44.013 41.0921 43.2424 45.2717 32.7673C45.5394 32.1469 45.2782 31.4547 44.7231 31.1216ZM30.4864 41.2048C29.6701 41.2048 29.1215 41.1395 29.1215 41.1395C28.3052 40.9763 27.5541 41.6032 27.5541 42.4326V43.7257L22.5125 39.4351L27.5541 35.1444V36.4375C27.5541 37.1885 28.0962 37.7306 28.7819 37.8024C28.8472 37.8024 29.4611 37.8677 30.5517 37.8677C33.0725 37.8677 36.9582 37.5934 40.1582 36.2351C36.9582 40.4604 32.9354 41.2048 30.4864 41.2048Z" fill="#AAAAAA"/>
<path d="M21.0497 32.5322C23.8448 29.1232 30.6562 28.7836 33.4513 28.7836C33.5884 28.7836 33.7256 28.7836 33.7909 28.7836V31.7159C33.7909 33.022 35.2211 33.4073 35.9721 32.7347L44.3508 25.6032C44.9908 25.0612 44.9908 24.0816 44.3574 23.533C41.7778 21.3126 35.9655 16.3167 35.9655 16.3167C35.3713 15.7224 33.7843 15.9118 33.7843 17.3355V20.0588C33.7843 20.0588 33.7843 20.0588 33.7778 20.0653C30.9762 19.9934 22.9044 20.7641 18.7313 31.2391C18.457 31.853 18.7248 32.5453 19.2733 32.8718C20.1027 33.3681 20.7754 32.8718 21.0497 32.5322ZM33.5166 22.7885C34.3329 22.7885 34.8815 22.8539 34.8815 22.8539C35.6978 23.0171 36.4488 22.3902 36.4488 21.5608V20.2677L41.4904 24.5583L36.4488 28.8489V27.5559C36.4488 26.8049 35.9068 26.2628 35.2211 26.191C35.1558 26.191 34.5419 26.1257 33.4513 26.1257C30.9305 26.1257 27.0448 26.4 23.8448 27.7583C27.0448 23.5396 31.0611 22.7885 33.5166 22.7885Z" fill="#AAAAAA"/>
</g>
<defs>
<clipPath id="clip0_11_43">
<rect width="32" height="32" fill="white" transform="translate(16 16)"/>
</clipPath>
</defs>
</svg>
